<?xml version="1.0" standalone="no"?><!DOCTYPE svg PUBLIC "-//W3C//DTD SVG 1.1//EN" "http://www.w3.org/Graphics/SVG/1.1/DTD/svg11.dtd"><svg t="1606270013313" class="icon" viewBox="0 0 1024 1024" version="1.1" xmlns="http://www.w3.org/2000/svg" p-id="3712" xmlns:xlink="http://www.w3.org/1999/xlink" ><defs><style type="text/css"></style></defs><path d="M290.559637 50.219031A509.994029 509.994029 0 0 1 511.99936 0.000427c282.751647 0 511.99936 229.247713 511.99936 511.99936 0 107.946532-33.365292 208.042407-90.367887 290.559636l-156.373138-207.786406 68.693248-49.919938 72.405242 97.578545c13.22665-41.130615 20.309308-84.949227 20.309308-130.431837 0-235.647705-191.018428-426.666133-426.666133-426.666134-59.946592 0-116.991854 12.373318-168.789122 34.687957L290.559637 50.219031z m445.140777 922.45218A509.951363 509.951363 0 0 1 511.99936 1023.999147C229.247713 1023.999147 0 794.751433 0 511.999787c0-107.946532 33.365292-208.042407 90.367887-290.559637l156.373138 207.786407-68.693248 49.919937-72.405242-97.578544A426.410134 426.410134 0 0 0 85.333227 511.999787c0 235.647705 191.018428 426.666133 426.666133 426.666133a425.215468 425.215468 0 0 0 171.093119-35.711955l52.607935 69.717246z"  p-id="3713"></path></svg>