<?xml version="1.0" standalone="no"?><!DOCTYPE svg PUBLIC "-//W3C//DTD SVG 1.1//EN" "http://www.w3.org/Graphics/SVG/1.1/DTD/svg11.dtd"><svg t="1606269901062" class="icon" viewBox="0 0 1024 1024" version="1.1" xmlns="http://www.w3.org/2000/svg" p-id="3587" xmlns:xlink="http://www.w3.org/1999/xlink" ><defs><style type="text/css"></style></defs><path d="M411.083 66.237H123.705c-31.739 0-57.475 25.73-57.475 57.465v287.374c0 31.748 25.736 57.481 57.475 57.481h287.377c31.739 0 57.472-25.733 57.472-57.481V123.702c0-31.736-25.736-57.465-57.471-57.465z m0 316.099c0 15.882-12.871 28.741-28.741 28.741H152.446c-15.876 0-28.741-12.858-28.741-28.741V152.443c0-15.869 12.865-28.741 28.741-28.741h229.896c15.869 0 28.741 12.871 28.741 28.741v229.893zM899.616 66.237H612.245c-31.745 0-57.481 25.73-57.481 57.465v287.374c0 31.748 25.736 57.481 57.481 57.481h287.371c31.742 0 57.475-25.733 57.475-57.481V123.702c-0.001-31.736-25.733-57.465-57.475-57.465z m0 316.099c0 15.882-12.865 28.741-28.734 28.741H640.979c-15.873 0-28.734-12.858-28.734-28.741V152.443c0-15.869 12.862-28.741 28.734-28.741h229.902c15.869 0 28.734 12.871 28.734 28.741v229.893zM411.083 554.763H123.705c-31.739 0-57.475 25.729-57.475 57.481v287.371c0 31.742 25.736 57.468 57.475 57.468h287.377c31.739 0 57.472-25.729 57.472-57.468v-287.37c0-31.752-25.736-57.482-57.471-57.482z m0 316.115c0 15.869-12.871 28.737-28.741 28.737H152.446c-15.876 0-28.741-12.868-28.741-28.737V640.982c0-15.879 12.865-28.737 28.741-28.737h229.896c15.869 0 28.741 12.858 28.741 28.737v229.896z m316.108-284.213v341.691c0 15.869-12.868 28.728-28.737 28.728-8.072 0-15.359-3.337-20.576-8.695l-0.517 0.517-88.31-88.304c-10.773-10.773-10.773-28.239 0-39.013 10.773-10.786 28.242-10.786 39.016 0l41.65 41.65V586.665c0-15.879 12.865-28.737 28.737-28.737 15.869 0 28.737 12.858 28.737 28.737z m195.427 103.608c-10.773 10.773-28.239 10.773-39.013 0l-41.465-41.468v279.551c0 15.869-12.865 28.728-28.741 28.728-15.869 0-28.734-12.858-28.734-28.728V583.504c0-15.869 12.865-28.741 28.734-28.741 8.027 0 15.279 3.298 20.493 8.605l0.415-0.415 88.31 88.304c10.775 10.774 10.775 28.23 0.001 39.016z" p-id="3588"></path></svg>